<?xml version="1.0" encoding="UTF-8"?>
<svg width="34px" height="36px" viewBox="0 0 34 36" version="1.1" xmlns="http://www.w3.org/2000/svg" xmlns:xlink="http://www.w3.org/1999/xlink">
    <title>5</title>
    <g id="5" stroke="none" stroke-width="1" fill="none" fill-rule="evenodd">
        <g transform="translate(-1.000000, -1.000000)"></g>
        <g id="8" transform="translate(-6.000000, -2.000000)">
            <g id="rectangle-copy-2" transform="translate(15.500000, 12.500000) rotate(-70.000000) translate(-15.500000, -12.500000) translate(7.000000, 0.000000)"></g>
        </g>
        <path d="M25.6085438,25.9667676 C23.5562448,25.7089995 21.6102826,24.6723838 19.4489885,22.6850751 C18.9226217,22.2027993 18.5610768,21.8452501 17.7024077,20.9555345 C17.0909714,20.3208152 17.0005852,20.2404359 16.9553921,20.2653812 C16.9261495,20.2820114 16.6895503,20.5231493 16.4263669,20.803091 C13.3851363,24.0487514 11.4125899,25.4151994 9.12900855,25.8531279 C7.64029428,26.138613 6.09575323,25.9584525 4.69210835,25.3375918 C2.33940813,24.2954327 0.616753053,22.1030182 0.135579335,19.5364242 C0.0265841833,18.9626823 0,18.6550237 0,17.9704138 C0,16.8839075 0.14355459,15.9775617 0.467881626,15.0185536 C1.36642702,12.346635 3.51177061,10.5089981 6.22069889,10.0876997 C7.90613611,9.82438823 9.7750042,10.1597639 11.4232236,11.0162191 C12.0692192,11.3515948 12.614195,11.7091441 13.2920917,12.2385387 C14.1454439,12.900975 14.7701722,13.4858036 16.1126735,14.8716535 C16.5805551,15.3567009 16.9819763,15.753054 17.0005852,15.753054 C17.0218526,15.753054 17.2052834,15.5701218 17.4099816,15.3483858 C17.8672296,14.8522516 18.9837653,13.7297132 19.4569638,13.2890129 C21.6368668,11.2629004 23.290403,10.3648697 25.374603,10.0655261 C25.5287912,10.0433525 25.8903361,10.0322657 26.3050494,10.0322657 C26.8712925,10.0322657 27.0467481,10.0433525 27.3684167,10.0960148 C29.0963886,10.3731848 30.5718108,11.146489 31.7787327,12.402069 C32.9936299,13.6687358 33.7512791,15.2984952 33.966611,17.1111869 C34.017121,17.5408004 34.0091457,18.6716539 33.9506605,19.1068107 C33.7433039,20.6617343 33.2195955,22.0642144 32.4406789,23.1451773 C32.1881291,23.4999548 31.6591039,24.0653816 31.3108511,24.3508667 C30.3431868,25.1546596 29.085755,25.6979127 27.6475506,25.9307355 C27.1903027,26.0027997 26.0684501,26.0249733 25.6085438,25.9667676 Z M8.69048678,22.9117301 C9.61102366,22.7035867 10.5425193,22.2286679 11.4575768,21.5016318 C11.7836003,21.2436513 12.2712657,20.8156381 12.5890701,20.5078204 C12.9890653,20.117918 15,18.0159628 15,17.9866468 C15,17.9397412 13.2465964,16.0840402 12.821944,15.6765482 C11.474015,14.3925087 10.2274546,13.5804562 9.05486596,13.2169382 C8.50144795,13.0469056 8.17542447,13 7.50693935,13 C6.98639766,13 6.86311147,13.0087948 6.59188186,13.0674267 C4.97546292,13.4162868 3.7919155,14.5449517 3.2768532,16.2247569 C2.8385023,17.6583079 2.92069309,19.018569 3.52342558,20.285019 C4.21382824,21.7390912 5.45764891,22.7006551 6.99187705,22.9674304 C7.16447772,22.9967464 7.39187224,23.0055412 7.79460713,22.9967464 C8.26583434,22.9879516 8.41103808,22.9732936 8.69048678,22.9117301 Z M27.1681213,22.960509 C28.0650195,22.8259471 28.8275201,22.4602896 29.4748227,21.8547609 C30.6789154,20.7314612 31.2549051,18.7452099 30.8928544,16.9491005 C30.5253182,15.1208132 29.2060276,13.6406319 27.5219435,13.1608893 C27.1160079,13.0468042 26.7567001,13 26.2767087,13 C25.4264383,13 24.7434791,13.1813661 23.8904658,13.6289308 C22.9935676,14.0969724 22.1295831,14.7727073 21.046174,15.8550534 C20.3659576,16.5337136 19.0082677,17.9583151 19,18.0021939 C18.9918109,18.0489981 20.2781878,19.4501975 20.832235,19.9942957 C22.70283,21.8372093 24.1812035,22.723563 25.7692892,22.960509 C26.1258543,23.0131637 26.8170419,23.0131637 27.1681213,22.960509 Z" id="Infinity-Bottom-Right" fill="#F15060" fill-rule="nonzero"></path>
    </g>
</svg>