<?xml version="1.0" encoding="UTF-8"?>
<svg width="34px" height="36px" viewBox="0 0 34 36" version="1.1" xmlns="http://www.w3.org/2000/svg" xmlns:xlink="http://www.w3.org/1999/xlink">
    <title>8</title>
    <g id="8" stroke="none" stroke-width="1" fill="none" fill-rule="evenodd">
        <path d="M15.75,3.45373864 C16.5235027,3.00715666 17.4764973,3.00715666 18.25,3.45373864 L18.25,3.45373864 L28.9724319,9.64433757 C29.3591832,9.86762856 29.6716832,10.1856034 29.8874954,10.5594011 C30.1033075,10.9331987 30.2224319,11.3628191 30.2224319,11.8094011 L30.2224319,11.8094011 L30.2224319,24.1905989 C30.2224319,25.0837629 29.7459346,25.9090804 28.9724319,26.3556624 L28.9724319,26.3556624 L18.25,32.5462614 C17.4764973,32.9928433 16.5235027,32.9928433 15.75,32.5462614 L15.75,32.5462614 L5.02756814,26.3556624 C4.25406544,25.9090804 3.77756814,25.0837629 3.77756814,24.1905989 L3.77756814,24.1905989 L3.77756814,11.8094011 C3.77756814,11.3628191 3.89669246,10.9331987 4.11250463,10.5594011 C4.32831679,10.1856034 4.64081679,9.86762856 5.02756814,9.64433757 L5.02756814,9.64433757 Z" id="Hexagone-Top" stroke="#F15060" stroke-width="3"></path>
    </g>
</svg>