<svg width="584" height="666" viewBox="0 0 584 666" fill="none" xmlns="http://www.w3.org/2000/svg">
<path d="M583.43 0C583.86 106.815 584.462 332.437 583.43 380.407C582.398 428.377 558.93 450.686 546.034 461.646L291.355 665.39L37.9651 461.646C25.0701 450.686 1.60133 428.377 0.569606 380.407C-0.462006 332.437 0.139768 106.815 0.569606 0C37.3207 0.00014381 71.106 16.5059 123.718 67.0547C176.33 117.604 258.257 186.12 292.644 214.06L460.282 67.0547C512.894 16.5058 546.679 1.28116e-05 583.43 0ZM291.355 380.407L123.718 227.6V346.234C123.718 366.867 132.1 375.894 137.258 380.407L292.644 515.806L446.741 380.407C451.899 375.894 460.282 366.867 460.282 346.234V227.6L291.355 380.407Z" fill="white"/>
</svg>
